<svg xmlns="http://www.w3.org/2000/svg" xmlns:xlink="http://www.w3.org/1999/xlink" width="500" zoomAndPan="magnify" viewBox="0 0 375 374.999991" height="500" preserveAspectRatio="xMidYMid meet" version="1.0"><defs><clipPath id="e01fea31a9"><path d="M 37 250 L 97 250 L 97 356.253906 L 37 356.253906 Z M 37 250 " clip-rule="nonzero"/></clipPath><clipPath id="61230adee5"><path d="M 71 119 L 303 119 L 303 356.253906 L 71 356.253906 Z M 71 119 " clip-rule="nonzero"/></clipPath><clipPath id="44c4203097"><path d="M 277 250 L 336.046875 250 L 336.046875 356.25 L 277 356.25 Z M 277 250 " clip-rule="nonzero"/></clipPath><clipPath id="c380027f2d"><path d="M 90.515625 290.703125 L 136.800781 290.703125 L 136.800781 340.105469 L 90.515625 340.105469 Z M 90.515625 290.703125 " clip-rule="nonzero"/></clipPath><clipPath id="8d890ef3ed"><path d="M 105.503906 304.554688 L 121.886719 304.554688 L 121.886719 315.429688 L 105.503906 315.429688 Z M 105.503906 304.554688 " clip-rule="nonzero"/></clipPath></defs><rect x="-37.5" width="450" fill="#ffffff" y="-37.499999" height="449.999989" fill-opacity="1"/><rect x="-37.5" width="450" fill="#ffffff" y="-37.499999" height="449.999989" fill-opacity="1"/><g clip-path="url(#e01fea31a9)"><path fill="#1a2d4b" d="M 69.480469 276.488281 L 69.65625 273.109375 L 72.933594 272.246094 C 87.234375 268.410156 93.863281 257.308594 96.582031 250.933594 C 96.074219 250.78125 95.589844 250.578125 95.109375 250.375 C 82.050781 260.152344 69.605469 264.828125 64.042969 266.582031 C 62.164062 267.164062 60.207031 267.445312 58.226562 267.445312 C 53.652344 267.445312 49.257812 269.707031 46.921875 273.640625 C 33.660156 295.894531 38.589844 356.25 38.589844 356.25 L 91.402344 356.25 C 67.523438 324.394531 69.402344 278.496094 69.480469 276.488281 " fill-opacity="1" fill-rule="nonzero"/></g><g clip-path="url(#61230adee5)"><path fill="#1a2d4b" d="M 186.65625 248.0625 C 164.023438 248.0625 129.832031 215.320312 125.769531 170.460938 C 148.324219 175.082031 172.507812 177.878906 186.859375 177.878906 C 200.984375 177.878906 225.039062 175.109375 247.570312 170.511719 C 243.480469 215.34375 209.316406 248.0625 186.65625 248.0625 Z M 299.621094 276.714844 C 276.453125 270.542969 271.042969 247.378906 271.042969 247.378906 C 283.769531 246.792969 292.457031 232.3125 292.457031 232.3125 C 269.976562 227.996094 253.3125 215.445312 242.921875 205.261719 C 247.875 194.390625 251.253906 182.273438 252.246094 169.519531 C 278.992188 163.703125 302.363281 155.320312 302.363281 146 C 302.363281 134.972656 282.09375 125.269531 251.304688 119.554688 C 252.652344 124.890625 253.972656 130.019531 255.191406 134.644531 L 255.851562 137.109375 L 253.667969 138.429688 C 234.539062 150.242188 208.503906 151.992188 194.683594 151.992188 C 194.660156 151.992188 194.660156 151.992188 194.660156 151.992188 C 190.441406 151.992188 187.621094 151.839844 186.835938 151.789062 C 186.226562 151.816406 184.347656 151.890625 181.527344 151.890625 C 169.738281 151.890625 140.171875 150.570312 120.078125 138.453125 L 117.894531 137.132812 L 118.554688 134.644531 C 119.773438 130.019531 121.09375 124.890625 122.441406 119.554688 C 91.65625 125.269531 71.382812 134.972656 71.382812 146 C 71.382812 155.296875 94.5 163.652344 121.09375 169.46875 C 122.085938 182.347656 125.515625 194.566406 130.542969 205.515625 C 120.15625 215.675781 103.566406 228.019531 81.265625 232.3125 C 81.265625 232.3125 89.953125 246.792969 102.679688 247.378906 C 102.679688 247.378906 97.292969 270.542969 74.128906 276.714844 C 74.128906 276.714844 71.789062 325.359375 97.292969 356.25 L 177.589844 356.25 C 177.589844 356.25 144.289062 301.636719 142.101562 224.921875 C 154.957031 241.914062 171.644531 252.710938 186.65625 252.710938 C 201.847656 252.710938 218.738281 241.660156 231.617188 224.363281 C 229.613281 301.382812 196.132812 356.25 196.132812 356.25 L 276.453125 356.25 C 301.929688 325.359375 299.621094 276.714844 299.621094 276.714844 " fill-opacity="1" fill-rule="nonzero"/></g><g clip-path="url(#44c4203097)"><path fill="#1a2d4b" d="M 326.800781 273.640625 C 324.460938 269.707031 320.066406 267.445312 315.496094 267.445312 C 313.515625 267.445312 311.582031 267.164062 309.703125 266.582031 C 304.140625 264.828125 291.667969 260.152344 278.613281 250.375 C 278.128906 250.578125 277.648438 250.78125 277.140625 250.933594 C 279.855469 257.308594 286.488281 268.410156 300.8125 272.246094 L 304.066406 273.109375 L 304.242188 276.488281 C 304.320312 278.496094 306.222656 324.394531 282.320312 356.25 L 335.132812 356.25 C 335.132812 356.25 340.058594 295.894531 326.800781 273.640625 " fill-opacity="1" fill-rule="nonzero"/></g><path fill="#1a2d4b" d="M 121.855469 135.53125 C 146.675781 150.496094 186.859375 148.359375 186.859375 148.359375 C 186.859375 148.359375 226.207031 151.359375 251.890625 135.53125 C 251.890625 135.53125 235.199219 72.460938 236.0625 61.433594 C 236.902344 50.410156 231.363281 18.761719 207.410156 36.289062 C 193.289062 45.710938 193.289062 45.28125 186.859375 45.710938 C 180.460938 45.28125 180.460938 45.710938 166.335938 36.289062 C 142.382812 18.761719 136.820312 50.410156 137.683594 61.433594 C 138.546875 72.460938 121.855469 135.53125 121.855469 135.53125 " fill-opacity="1" fill-rule="nonzero"/><g clip-path="url(#c380027f2d)"><path fill="#cc0000" d="M 136.800781 315.402344 L 132.171875 315.402344 L 132.171875 303.050781 L 119.828125 290.703125 L 95.144531 290.703125 L 95.144531 315.402344 L 90.515625 315.402344 L 90.515625 330.839844 L 95.144531 330.839844 L 95.144531 340.105469 L 132.171875 340.105469 L 132.171875 330.839844 L 136.800781 330.839844 L 136.800781 315.402344 " fill-opacity="1" fill-rule="nonzero"/></g><path fill="#ffffff" d="M 96.6875 338.5625 L 130.628906 338.5625 L 130.628906 330.839844 L 96.6875 330.839844 Z M 119.828125 292.886719 L 119.828125 303.050781 L 129.988281 303.050781 Z M 118.285156 304.597656 L 118.285156 292.246094 L 96.6875 292.246094 L 96.6875 315.402344 L 130.628906 315.402344 L 130.628906 304.597656 Z M 118.335938 322.90625 C 118.335938 321.273438 117.734375 320.132812 116.773438 319.417969 C 115.878906 318.742188 114.742188 318.429688 112.984375 318.429688 C 111.929688 318.429688 110.925781 318.496094 110.15625 318.621094 L 110.15625 327.710938 C 110.679688 327.78125 111.449219 327.851562 112.53125 327.851562 C 114.34375 327.851562 115.824219 327.464844 116.800781 326.65625 C 117.691406 325.898438 118.335938 324.675781 118.335938 322.90625 Z M 112.984375 326.214844 C 112.722656 326.214844 112.4375 326.214844 112.257812 326.175781 L 112.257812 320.117188 C 112.4375 320.078125 112.738281 320.035156 113.203125 320.035156 C 115 320.035156 116.128906 321.050781 116.113281 322.976562 C 116.113281 325.183594 114.878906 326.230469 112.984375 326.214844 Z M 104.621094 324.484375 C 105.859375 324.484375 106.914062 324.183594 107.628906 323.507812 C 108.175781 322.988281 108.476562 322.21875 108.476562 321.3125 C 108.476562 320.40625 108.082031 319.636719 107.492188 319.167969 C 106.875 318.675781 105.953125 318.429688 104.664062 318.429688 C 103.386719 318.429688 102.480469 318.511719 101.835938 318.621094 L 101.835938 327.753906 L 103.910156 327.753906 L 103.910156 324.445312 C 104.101562 324.472656 104.347656 324.484375 104.621094 324.484375 Z M 103.910156 320.089844 C 104.058594 320.050781 104.347656 320.007812 104.773438 320.007812 C 105.816406 320.007812 106.40625 320.515625 106.40625 321.367188 C 106.40625 322.316406 105.71875 322.878906 104.609375 322.878906 C 104.304688 322.878906 104.085938 322.863281 103.910156 322.824219 Z M 125.710938 320.214844 L 125.710938 318.496094 L 120.054688 318.496094 L 120.054688 327.753906 L 122.15625 327.753906 L 122.15625 324.03125 L 125.476562 324.03125 L 125.476562 322.328125 L 122.15625 322.328125 L 122.15625 320.214844 L 125.710938 320.214844 " fill-opacity="1" fill-rule="nonzero"/><path fill="#cc0000" d="M 115.363281 310.542969 C 114.722656 310.542969 114.257812 309.847656 114.257812 308.886719 C 114.257812 307.925781 114.722656 307.230469 115.363281 307.230469 C 116.003906 307.230469 116.46875 307.925781 116.46875 308.886719 C 116.46875 309.847656 116.003906 310.542969 115.363281 310.542969 Z M 114.707031 312.523438 C 114.601562 312.667969 114.4375 312.753906 114.257812 312.753906 L 113.152344 312.753906 C 112.976562 312.753906 112.808594 312.667969 112.707031 312.523438 C 112.601562 312.378906 112.574219 312.195312 112.628906 312.027344 L 113.179688 310.371094 C 113.257812 310.144531 113.46875 309.992188 113.707031 309.992188 C 113.945312 309.992188 114.15625 310.144531 114.230469 310.371094 L 114.78125 312.027344 C 114.839844 312.195312 114.808594 312.378906 114.707031 312.523438 Z M 110.941406 308.886719 C 110.941406 307.925781 111.40625 307.230469 112.046875 307.230469 C 112.6875 307.230469 113.152344 307.925781 113.152344 308.886719 C 113.152344 309.847656 112.6875 310.542969 112.046875 310.542969 C 111.40625 310.542969 110.941406 309.847656 110.941406 308.886719 Z M 113.707031 306.125 C 111.878906 306.125 110.390625 307.609375 110.390625 309.4375 C 110.390625 310.226562 111.214844 311.066406 111.8125 311.679688 L 111.890625 311.757812 C 112.023438 311.894531 112.078125 312.089844 112.03125 312.273438 L 111.742188 313.46875 C 111.710938 313.597656 111.765625 313.691406 111.800781 313.738281 C 111.835938 313.785156 111.914062 313.859375 112.046875 313.859375 L 115.363281 313.859375 C 115.496094 313.859375 115.574219 313.785156 115.613281 313.738281 C 115.648438 313.691406 115.703125 313.597656 115.667969 313.46875 L 115.378906 312.273438 C 115.332031 312.089844 115.386719 311.894531 115.519531 311.757812 L 115.597656 311.679688 C 116.199219 311.066406 117.019531 310.226562 117.019531 309.4375 C 117.019531 307.609375 115.535156 306.125 113.707031 306.125 " fill-opacity="1" fill-rule="nonzero"/><g clip-path="url(#8d890ef3ed)"><path fill="#cc0000" d="M 121.320312 310.335938 L 119.109375 313.097656 C 119 313.234375 118.839844 313.304688 118.679688 313.304688 C 118.558594 313.304688 118.433594 313.265625 118.332031 313.183594 C 118.09375 312.996094 118.054688 312.648438 118.246094 312.410156 L 120.179688 309.992188 L 118.246094 307.574219 C 118.054688 307.335938 118.09375 306.988281 118.332031 306.796875 C 118.570312 306.605469 118.917969 306.644531 119.109375 306.882812 L 121.320312 309.644531 C 121.480469 309.847656 121.480469 310.136719 121.320312 310.335938 Z M 116.523438 312.3125 L 116.742188 313.207031 C 116.847656 313.632812 116.75 314.074219 116.480469 314.421875 C 116.210938 314.765625 115.800781 314.964844 115.363281 314.964844 L 112.046875 314.964844 C 111.609375 314.964844 111.203125 314.765625 110.929688 314.421875 C 110.660156 314.078125 110.5625 313.632812 110.667969 313.207031 L 110.886719 312.308594 C 110.171875 311.578125 109.285156 310.601562 109.285156 309.4375 C 109.285156 307 111.269531 305.019531 113.707031 305.019531 C 116.144531 305.019531 118.125 307 118.125 309.4375 C 118.125 310.601562 117.242188 311.578125 116.523438 312.3125 Z M 109.164062 307.574219 L 107.230469 309.992188 L 109.164062 312.410156 C 109.355469 312.648438 109.316406 312.996094 109.078125 313.183594 C 108.976562 313.265625 108.855469 313.304688 108.734375 313.304688 C 108.570312 313.304688 108.410156 313.234375 108.300781 313.097656 L 106.09375 310.335938 C 105.929688 310.136719 105.929688 309.847656 106.09375 309.644531 L 108.300781 306.882812 C 108.492188 306.644531 108.839844 306.605469 109.078125 306.796875 C 109.316406 306.988281 109.355469 307.335938 109.164062 307.574219 Z M 121.683594 309.355469 L 119.472656 306.59375 C 119.277344 306.351562 118.988281 306.210938 118.679688 306.210938 C 118.449219 306.210938 118.222656 306.292969 118.042969 306.433594 C 117.933594 306.523438 117.84375 306.632812 117.78125 306.753906 C 116.90625 305.429688 115.40625 304.554688 113.707031 304.554688 C 112.003906 304.554688 110.503906 305.429688 109.628906 306.753906 C 109.566406 306.632812 109.480469 306.523438 109.367188 306.433594 C 109.1875 306.292969 108.964844 306.210938 108.734375 306.210938 C 108.421875 306.210938 108.132812 306.351562 107.9375 306.59375 L 105.730469 309.355469 C 105.429688 309.730469 105.429688 310.253906 105.730469 310.625 L 107.9375 313.386719 C 108.132812 313.632812 108.421875 313.769531 108.734375 313.769531 C 108.964844 313.769531 109.1875 313.691406 109.367188 313.546875 C 109.582031 313.378906 109.714844 313.136719 109.742188 312.867188 C 109.773438 312.597656 109.695312 312.332031 109.527344 312.121094 L 107.824219 309.992188 L 108.890625 308.660156 C 108.847656 308.914062 108.820312 309.171875 108.820312 309.4375 C 108.820312 310.65625 109.59375 311.628906 110.375 312.449219 L 110.21875 313.097656 C 110.078125 313.664062 110.207031 314.25 110.566406 314.707031 C 110.925781 315.164062 111.464844 315.429688 112.046875 315.429688 L 115.363281 315.429688 C 115.945312 315.429688 116.484375 315.164062 116.84375 314.707031 C 117.207031 314.25 117.332031 313.664062 117.195312 313.097656 L 117.035156 312.449219 C 117.816406 311.628906 118.589844 310.65625 118.589844 309.4375 C 118.589844 309.171875 118.5625 308.914062 118.523438 308.660156 L 119.585938 309.992188 L 117.882812 312.117188 C 117.535156 312.554688 117.605469 313.195312 118.042969 313.546875 C 118.222656 313.691406 118.449219 313.769531 118.675781 313.769531 C 118.988281 313.769531 119.277344 313.632812 119.472656 313.390625 L 121.683594 310.625 C 121.980469 310.253906 121.980469 309.730469 121.683594 309.355469 " fill-opacity="1" fill-rule="nonzero"/></g></svg>