<svg xmlns="http://www.w3.org/2000/svg" xmlns:xlink="http://www.w3.org/1999/xlink" width="500" zoomAndPan="magnify" viewBox="0 0 375 374.999991" height="500" preserveAspectRatio="xMidYMid meet" version="1.0"><defs><clipPath id="2a889569b9"><path d="M 7.894531 6.238281 L 366.691406 6.238281 L 366.691406 365.035156 L 7.894531 365.035156 Z M 7.894531 6.238281 " clip-rule="nonzero"/></clipPath><clipPath id="c15b8292ae"><path d="M 187.292969 6.238281 C 88.214844 6.238281 7.894531 86.558594 7.894531 185.636719 C 7.894531 284.714844 88.214844 365.035156 187.292969 365.035156 C 286.371094 365.035156 366.691406 284.714844 366.691406 185.636719 C 366.691406 86.558594 286.371094 6.238281 187.292969 6.238281 Z M 187.292969 6.238281 " clip-rule="nonzero"/></clipPath><clipPath id="508c216400"><path d="M 15.539062 13.882812 L 359.046875 13.882812 L 359.046875 357.390625 L 15.539062 357.390625 Z M 15.539062 13.882812 " clip-rule="nonzero"/></clipPath><clipPath id="6ea9588ef1"><path d="M 187.292969 13.882812 C 92.433594 13.882812 15.539062 90.78125 15.539062 185.636719 C 15.539062 280.496094 92.433594 357.390625 187.292969 357.390625 C 282.152344 357.390625 359.046875 280.496094 359.046875 185.636719 C 359.046875 90.78125 282.152344 13.882812 187.292969 13.882812 Z M 187.292969 13.882812 " clip-rule="nonzero"/></clipPath><clipPath id="7b92100f63"><path d="M 19.359375 17.703125 L 355.226562 17.703125 L 355.226562 353.570312 L 19.359375 353.570312 Z M 19.359375 17.703125 " clip-rule="nonzero"/></clipPath><clipPath id="a1a51d6004"><path d="M 187.292969 17.703125 C 94.546875 17.703125 19.359375 92.890625 19.359375 185.636719 C 19.359375 278.382812 94.546875 353.570312 187.292969 353.570312 C 280.039062 353.570312 355.226562 278.382812 355.226562 185.636719 C 355.226562 92.890625 280.039062 17.703125 187.292969 17.703125 Z M 187.292969 17.703125 " clip-rule="nonzero"/></clipPath></defs><g clip-path="url(#2a889569b9)"><g clip-path="url(#c15b8292ae)"><path fill="#1971a4" d="M 7.894531 6.238281 L 366.691406 6.238281 L 366.691406 365.035156 L 7.894531 365.035156 Z M 7.894531 6.238281 " fill-opacity="1" fill-rule="nonzero"/></g></g><g clip-path="url(#508c216400)"><g clip-path="url(#6ea9588ef1)"><path fill="#ffffff" d="M 15.539062 13.882812 L 359.046875 13.882812 L 359.046875 357.390625 L 15.539062 357.390625 Z M 15.539062 13.882812 " fill-opacity="1" fill-rule="nonzero"/></g></g><g clip-path="url(#7b92100f63)"><g clip-path="url(#a1a51d6004)"><path fill="#1971a4" d="M 19.359375 17.703125 L 355.226562 17.703125 L 355.226562 353.570312 L 19.359375 353.570312 Z M 19.359375 17.703125 " fill-opacity="1" fill-rule="nonzero"/></g></g><path fill="#ffffff" d="M 113.101562 213.703125 C 113.101562 213.703125 115.304688 180.0625 102.726562 153.027344 L 182.582031 153.132812 C 190.691406 218.023438 162.648438 265.65625 107.757812 300.476562 C 173.554688 271.660156 204.132812 219.679688 194.214844 141.082031 L 83.234375 141.082031 L 94.238281 160.261719 L 56.195312 160.261719 C 56.195312 160.261719 90.464844 192.332031 98.953125 211.195312 C 98.953125 211.195312 95.496094 188.558594 82.917969 174.410156 L 101.152344 174.410156 C 101.152344 174.40625 110.898438 195.78125 113.101562 213.703125 Z M 113.101562 213.703125 " fill-opacity="1" fill-rule="nonzero"/><path fill="#ffffff" d="M 145.53125 179.941406 L 144.4375 179.941406 C 143.679688 179.941406 143.0625 180.023438 142.578125 180.183594 C 142.089844 180.34375 141.726562 180.546875 141.488281 180.792969 C 141.191406 181.085938 140.996094 181.484375 140.902344 181.984375 C 140.808594 182.484375 140.757812 182.9375 140.757812 183.34375 C 140.757812 183.855469 140.832031 184.28125 140.980469 184.617188 C 141.125 184.957031 141.308594 185.234375 141.527344 185.445312 C 141.746094 185.664062 141.972656 185.824219 142.214844 185.933594 C 142.457031 186.042969 142.671875 186.121094 142.863281 186.179688 L 145.535156 187.03125 L 145.535156 179.941406 Z M 145.53125 179.941406 " fill-opacity="1" fill-rule="nonzero"/><path fill="#ffffff" d="M 151.28125 199.640625 C 151.929688 199.546875 152.429688 199.351562 152.777344 199.054688 C 153.023438 198.835938 153.226562 198.535156 153.386719 198.144531 C 153.546875 197.753906 153.628906 197.273438 153.628906 196.707031 C 153.628906 195.925781 153.441406 195.1875 153.0625 194.5 C 152.683594 193.8125 151.902344 193.28125 150.714844 192.902344 L 148.691406 192.253906 L 148.691406 199.78125 L 149.660156 199.78125 C 150.09375 199.78125 150.632812 199.738281 151.28125 199.640625 Z M 151.28125 199.640625 " fill-opacity="1" fill-rule="nonzero"/><path fill="#ffffff" d="M 170.632812 189.808594 C 170.632812 176.789062 160.074219 166.230469 147.054688 166.230469 C 134.03125 166.230469 123.476562 176.789062 123.476562 189.808594 C 123.476562 202.832031 134.03125 213.390625 147.054688 213.390625 C 160.074219 213.390625 170.632812 202.832031 170.632812 189.808594 Z M 136.296875 204.03125 L 136.296875 199.78125 L 145.53125 199.78125 L 145.53125 191.238281 L 140.105469 189.5 C 139.347656 189.253906 138.648438 188.964844 138 188.628906 C 137.351562 188.289062 136.757812 187.675781 136.21875 186.785156 C 135.789062 186.058594 135.519531 185.308594 135.410156 184.539062 C 135.300781 183.769531 135.246094 183.0625 135.246094 182.410156 C 135.246094 181.574219 135.324219 180.730469 135.46875 179.878906 C 135.617188 179.027344 135.988281 178.265625 136.582031 177.589844 C 136.960938 177.160156 137.386719 176.816406 137.859375 176.558594 C 138.332031 176.304688 138.816406 176.113281 139.3125 175.992188 C 139.8125 175.871094 140.3125 175.789062 140.8125 175.75 C 141.308594 175.707031 141.789062 175.6875 142.25 175.6875 L 145.527344 175.6875 L 145.527344 172.933594 L 148.6875 172.933594 L 148.6875 175.6875 L 157.351562 175.6875 L 157.351562 179.941406 L 148.6875 179.941406 L 148.6875 188.039062 L 153.464844 189.578125 C 154.195312 189.820312 154.945312 190.101562 155.710938 190.429688 C 156.480469 190.75 157.207031 191.359375 157.878906 192.253906 C 158.46875 193.035156 158.832031 193.8125 158.949219 194.582031 C 159.070312 195.351562 159.132812 196.195312 159.132812 197.109375 C 159.132812 197.625 159.121094 198.140625 159.09375 198.648438 C 159.066406 199.164062 158.984375 199.664062 158.847656 200.144531 C 158.714844 200.628906 158.519531 201.097656 158.265625 201.542969 C 158.007812 201.988281 157.648438 202.386719 157.191406 202.734375 C 156.785156 203.058594 156.339844 203.308594 155.855469 203.484375 C 155.367188 203.660156 154.867188 203.789062 154.359375 203.871094 C 153.84375 203.953125 153.332031 204 152.820312 204.015625 C 152.304688 204.027344 151.824219 204.03125 151.359375 204.03125 L 148.691406 204.03125 L 148.691406 206.785156 L 145.53125 206.785156 L 145.53125 204.03125 Z M 136.296875 204.03125 " fill-opacity="1" fill-rule="nonzero"/><path fill="#ffffff" d="M 166.179688 69.230469 L 170.082031 101.703125 L 118.457031 79.746094 C 118.730469 80.371094 130.015625 105.96875 138.359375 132.339844 L 150.230469 132.339844 C 149.65625 126.347656 148.539062 120.234375 146.585938 114.433594 L 171.332031 124.964844 C 171.332031 124.964844 171.402344 127.753906 171.347656 132.339844 L 182.550781 132.339844 C 184.792969 121.070312 186.183594 108.894531 185.769531 96.75 L 294.105469 142.992188 C 270.765625 225.449219 216.699219 273.070312 138.90625 293.792969 C 128.90625 296.457031 118.523438 298.683594 107.75 300.46875 C 115.164062 300.382812 122.414062 300.042969 129.484375 299.4375 C 223.449219 291.472656 287.28125 238.171875 316.820312 133.296875 Z M 166.179688 69.230469 " fill-opacity="1" fill-rule="nonzero"/><path fill="#ffffff" d="M 226.902344 157.492188 C 225.878906 157.054688 224.988281 156.8125 224.234375 156.746094 C 223.480469 156.683594 222.875 156.753906 222.398438 156.945312 C 221.824219 157.175781 221.332031 157.605469 220.921875 158.234375 C 220.5 158.851562 220.179688 159.449219 219.941406 159.996094 C 219.648438 160.695312 219.507812 161.316406 219.511719 161.863281 C 219.519531 162.40625 219.605469 162.886719 219.777344 163.308594 C 219.941406 163.722656 220.167969 164.082031 220.4375 164.367188 C 220.699219 164.652344 220.945312 164.890625 221.175781 165.074219 L 224.316406 167.777344 L 228.394531 158.121094 Z M 226.902344 157.492188 " fill-opacity="1" fill-rule="nonzero"/><path fill="#ffffff" d="M 222.582031 187.53125 C 223.164062 187.78125 223.925781 188.023438 224.855469 188.273438 C 225.792969 188.519531 226.582031 188.542969 227.230469 188.335938 C 227.683594 188.1875 228.132812 187.890625 228.582031 187.445312 C 229.027344 187.007812 229.40625 186.402344 229.734375 185.628906 C 230.1875 184.5625 230.351562 183.457031 230.230469 182.296875 C 230.113281 181.144531 229.359375 179.957031 227.964844 178.757812 L 225.589844 176.707031 L 221.25 186.964844 Z M 222.582031 187.53125 " fill-opacity="1" fill-rule="nonzero"/><path fill="#ffffff" d="M 204 186.460938 C 203.601562 190.765625 203.054688 194.980469 202.347656 199.101562 C 204.945312 201.304688 207.910156 203.15625 211.207031 204.554688 C 228.882812 212.074219 249.289062 203.792969 256.78125 186.054688 C 264.265625 168.316406 256.019531 147.84375 238.339844 140.324219 C 226.332031 135.214844 213.066406 137.410156 203.453125 144.894531 C 204.765625 157.109375 205.105469 168.761719 204.484375 179.839844 L 216.96875 185.148438 L 221.886719 173.503906 L 215.523438 168.003906 C 214.632812 167.238281 213.84375 166.433594 213.160156 165.605469 C 212.480469 164.773438 212.023438 163.585938 211.804688 162.058594 C 211.640625 160.820312 211.699219 159.644531 212.003906 158.53125 C 212.296875 157.429688 212.628906 156.429688 213.003906 155.546875 C 213.488281 154.410156 214.070312 153.308594 214.761719 152.234375 C 215.449219 151.160156 216.394531 150.335938 217.589844 149.761719 C 218.351562 149.386719 219.125 149.164062 219.917969 149.085938 C 220.707031 149.015625 221.476562 149.03125 222.222656 149.15625 C 222.96875 149.277344 223.691406 149.457031 224.390625 149.691406 C 225.101562 149.917969 225.757812 150.175781 226.378906 150.4375 L 230.828125 152.328125 L 232.417969 148.582031 L 236.703125 150.402344 L 235.121094 154.15625 L 246.882812 159.152344 L 244.4375 164.945312 L 232.675781 159.945312 L 228.019531 170.96875 L 233.613281 175.824219 C 234.464844 176.578125 235.320312 177.394531 236.179688 178.28125 C 237.039062 179.171875 237.664062 180.414062 238.070312 182.019531 C 238.425781 183.425781 238.460938 184.6875 238.1875 185.808594 C 237.910156 186.929688 237.507812 188.109375 236.972656 189.359375 C 236.679688 190.058594 236.371094 190.753906 236.035156 191.433594 C 235.703125 192.117188 235.304688 192.742188 234.84375 193.332031 C 234.382812 193.914062 233.847656 194.4375 233.246094 194.898438 C 232.640625 195.351562 231.925781 195.691406 231.097656 195.898438 C 230.359375 196.105469 229.613281 196.191406 228.851562 196.15625 C 228.097656 196.105469 227.34375 195.996094 226.605469 195.8125 C 225.859375 195.621094 225.132812 195.394531 224.4375 195.113281 C 223.726562 194.835938 223.070312 194.566406 222.441406 194.304688 L 218.816406 192.761719 L 217.226562 196.515625 L 212.941406 194.6875 L 214.523438 190.9375 Z M 204 186.460938 " fill-opacity="1" fill-rule="nonzero"/></svg>